<svg xmlns="http://www.w3.org/2000/svg" width="1400" height="820" viewBox="0 0 1400 820">
  <rect width="1400" height="820" fill="#0b1220" rx="24"/>
  <text x="60" y="80" fill="#e2e8f0" font-size="44" font-family="Segoe UI, Arial" font-weight="700">Mechanical Hopper Recipes</text>

  <g transform="translate(70,140)">
    <text x="65" y="-18" fill="#cbd5e1" font-size="23" font-family="Segoe UI, Arial">Mechanic Hopper</text>
    <rect x="0" y="0" width="260" height="260" fill="#111827" stroke="#334155"/>
    <g stroke="#475569" fill="#1f2937"><rect x="0" y="0" width="86.66" height="86.66"/><rect x="86.66" y="0" width="86.66" height="86.66"/><rect x="173.32" y="0" width="86.66" height="86.66"/><rect x="0" y="86.66" width="86.66" height="86.66"/><rect x="86.66" y="86.66" width="86.66" height="86.66"/><rect x="173.32" y="86.66" width="86.66" height="86.66"/><rect x="0" y="173.32" width="86.66" height="86.66"/><rect x="86.66" y="173.32" width="86.66" height="86.66"/><rect x="173.32" y="173.32" width="86.66" height="86.66"/></g>
    <g fill="#e5e7eb" font-size="30" font-family="Consolas, monospace" text-anchor="middle" dominant-baseline="middle">
      <text x="43" y="43">S</text><text x="216" y="43">S</text>
      <text x="43" y="130">S</text><text x="130" y="130">H</text><text x="216" y="130">S</text>
      <text x="130" y="216">S</text>
    </g>
  </g>

  <g transform="translate(390,140)">
    <text x="62" y="-18" fill="#cbd5e1" font-size="23" font-family="Segoe UI, Arial">Mechanic Dropper</text>
    <rect x="0" y="0" width="260" height="260" fill="#111827" stroke="#334155"/>
    <g stroke="#475569" fill="#1f2937"><rect x="0" y="0" width="86.66" height="86.66"/><rect x="86.66" y="0" width="86.66" height="86.66"/><rect x="173.32" y="0" width="86.66" height="86.66"/><rect x="0" y="86.66" width="86.66" height="86.66"/><rect x="86.66" y="86.66" width="86.66" height="86.66"/><rect x="173.32" y="86.66" width="86.66" height="86.66"/><rect x="0" y="173.32" width="86.66" height="86.66"/><rect x="86.66" y="173.32" width="86.66" height="86.66"/><rect x="173.32" y="173.32" width="86.66" height="86.66"/></g>
    <g fill="#e5e7eb" font-size="30" font-family="Consolas, monospace" text-anchor="middle" dominant-baseline="middle">
      <text x="43" y="43">S</text><text x="216" y="43">S</text>
      <text x="43" y="130">S</text><text x="130" y="130">D</text><text x="216" y="130">S</text>
      <text x="130" y="216">S</text>
    </g>
  </g>

  <g transform="translate(710,140)">
    <text x="72" y="-18" fill="#cbd5e1" font-size="23" font-family="Segoe UI, Arial">Ender Hopper</text>
    <rect x="0" y="0" width="260" height="260" fill="#111827" stroke="#334155"/>
    <g stroke="#475569" fill="#1f2937"><rect x="0" y="0" width="86.66" height="86.66"/><rect x="86.66" y="0" width="86.66" height="86.66"/><rect x="173.32" y="0" width="86.66" height="86.66"/><rect x="0" y="86.66" width="86.66" height="86.66"/><rect x="86.66" y="86.66" width="86.66" height="86.66"/><rect x="173.32" y="86.66" width="86.66" height="86.66"/><rect x="0" y="173.32" width="86.66" height="86.66"/><rect x="86.66" y="173.32" width="86.66" height="86.66"/><rect x="173.32" y="173.32" width="86.66" height="86.66"/></g>
    <g fill="#e5e7eb" font-size="30" font-family="Consolas, monospace" text-anchor="middle" dominant-baseline="middle">
      <text x="43" y="43">O</text><text x="130" y="43">E</text><text x="216" y="43">O</text>
      <text x="43" y="130">O</text><text x="130" y="130">C</text><text x="216" y="130">O</text>
      <text x="130" y="216">O</text>
    </g>
  </g>

  <g transform="translate(1040,210)">
    <rect x="0" y="0" width="290" height="170" rx="14" fill="#111827" stroke="#334155"/>
    <text x="20" y="45" fill="#cbd5e1" font-size="24" font-family="Segoe UI, Arial">Mechanic Upper</text>
    <text x="20" y="92" fill="#e5e7eb" font-size="22" font-family="Segoe UI, Arial">Shapeless:</text>
    <text x="20" y="132" fill="#e5e7eb" font-size="22" font-family="Segoe UI, Arial">1x Mechanic Hopper → 1x Upper</text>
  </g>

  <text x="70" y="760" fill="#cbd5e1" font-size="25" font-family="Segoe UI, Arial">Legend: S=steel_ingot, H=hopper, D=dropper, O=obsidian, E=ender_eye, C=chest.</text>
</svg>